<svg xmlns="http://www.w3.org/2000/svg" viewBox="0 0 88 88"><title>Artboard-8</title><g id="Box_Delivery" data-name="Box Delivery"><path d="M43,75H34a1,1,0,0,0,0,2h9a1,1,0,0,0,0-2Z" style="fill:#1d1b1e"/><path d="M38,78H34a1,1,0,0,0,0,2h4a1,1,0,0,0,0-2Z" style="fill:#1d1b1e"/><path d="M34,25h9a1,1,0,0,0,0-2H34a1,1,0,0,0,0,2Z" style="fill:#1d1b1e"/><path d="M38,28a1,1,0,0,0,0-2H34a1,1,0,0,0,0,2Z" style="fill:#1d1b1e"/><path d="M15,75H6a1,1,0,0,0,0,2h9a1,1,0,0,0,0-2Z" style="fill:#1d1b1e"/><path d="M10,78H6a1,1,0,0,0,0,2h4a1,1,0,0,0,0-2Z" style="fill:#1d1b1e"/><path d="M86,56H73V31a1,1,0,0,0-1-1H59V5a1,1,0,0,0-1-1H30a1,1,0,0,0-1,1V30H16a1,1,0,0,0-1,1V56H2a1,1,0,0,0-1,1V83a1,1,0,0,0,1,1H86a1,1,0,0,0,1-1V57A1,1,0,0,0,86,56Zm-1,6H77V58h8ZM75,67l-2.4-1.8a.998.998,0,0,0-1.1992,0L69,67V58h6ZM21,58h8v4H21Zm10,0h8v4H31Zm10,0h6v9l-2.4-1.8a1,1,0,0,0-1.2,0L41,67ZM35,32h8v4H35Zm18,0v4H45V32ZM49,58h8v4H49Zm10,0h8v4H59ZM45,56V38h8v5a1,1,0,0,0,1.6.8L58,41.25l3.4,2.55A1,1,0,0,0,63,43V38h8V56ZM71,36H63V32h8ZM61,41l-2.4-1.8a.998.998,0,0,0-1.1992,0L55,41V32h6ZM57,10H49V6h8ZM47,6v9l-2.4-1.8a1,1,0,0,0-1.2,0L41,15V6ZM39,6v4H31V6Zm-8,6h8v5a1,1,0,0,0,1.6.8L44,15.25l3.4,2.55A1,1,0,0,0,49,17V12h8V30H31Zm2,20v9l-2.4-1.8a1,1,0,0,0-1.2,0L27,41V32Zm-8,0v4H17V32Zm-8,6h8v5a1,1,0,0,0,1.6.8L30,41.25l3.4,2.55A1,1,0,0,0,35,43V38h8V56H17Zm2,20v9l-2.4-1.8a1,1,0,0,0-1.2,0L13,67V58Zm-8,0v4H3V58ZM3,64h8v5a1,1,0,0,0,1.6.8L16,67.25l3.4,2.55A1,1,0,0,0,21,69V64h8V82H3Zm28,0h8v5a1,1,0,0,0,1.6.8L44,67.25l3.4,2.55A1,1,0,0,0,49,69V64h8V82H31ZM59,82V64h8v5a1,1,0,0,0,1.6.8L72,67.25l3.4,2.55A1,1,0,0,0,77,69V64h8V82Z" style="fill:#1d1b1e"/><path d="M71,75H62a1,1,0,0,0,0,2h9a1,1,0,0,0,0-2Z" style="fill:#1d1b1e"/><path d="M66,78H62a1,1,0,0,0,0,2h4a1,1,0,0,0,0-2Z" style="fill:#1d1b1e"/><path d="M20,51h9a1,1,0,0,0,0-2H20a1,1,0,0,0,0,2Z" style="fill:#1d1b1e"/><path d="M57,49H48a1,1,0,0,0,0,2h9a1,1,0,0,0,0-2Z" style="fill:#1d1b1e"/><path d="M52,52H48a1,1,0,0,0,0,2h4a1,1,0,0,0,0-2Z" style="fill:#1d1b1e"/><path d="M24,54a1,1,0,0,0,0-2H20a1,1,0,0,0,0,2Z" style="fill:#1d1b1e"/></g></svg>